<svg width="28" height="6" viewBox="0 0 28 6" fill="none" xmlns="http://www.w3.org/2000/svg">
<path fill-rule="evenodd" clip-rule="evenodd" d="M22 3C22 1.34315 23.3431 0 25 0C26.6569 0 28 1.34314 28 2.99998C28 4.65685 26.6569 5.99999 25 6C23.3431 6 22 4.65686 22 3ZM11 3C11 1.34315 12.3431 0 14 0C15.6569 0 17 1.34314 17 2.99998C17 4.65685 15.6569 5.99999 14 6C12.3431 6 11 4.65686 11 3ZM0 3C0 1.34315 1.34314 0 3 0C4.65686 0 6 1.34314 6 2.99998C6 4.65685 4.65686 5.99999 3 6C1.34314 6 0 4.65686 0 3Z" fill="#99B2C6"/>
</svg>
