<svg width="32" height="32" viewBox="0 0 32 32" fill="none" xmlns="http://www.w3.org/2000/svg">
<path fill-rule="evenodd" clip-rule="evenodd" d="M9.2762 7.0302C9.79018 3.15951 12.486 0 16 0H16.75V0.75C16.75 3.21998 16.9192 4.59023 17.1072 5.29501C20.2477 2.57175 24.698 2.0706 27.3137 4.68629L27.7492 5.12178L24.9698 9.27619C28.8405 9.79017 32 12.486 32 16V16.6159L27.0971 17.5882C29.4706 20.6886 29.7985 24.8289 27.3137 27.3137L26.8782 27.7492L22.7238 24.9698C22.2098 28.8405 19.514 32 16 32H15.3841L14.4118 27.097C11.3114 29.4706 7.17107 29.7985 4.68629 27.3137L4.2508 26.8782L7.0302 22.7238C3.15951 22.2098 0 19.514 0 16V15.3841L4.90295 14.4118C2.5294 11.3114 2.20151 7.17107 4.68629 4.68629L5.12178 4.2508L9.2762 7.0302ZM9.19553 8.78097L5.35054 6.20858C3.83213 8.27259 4.25259 11.7656 6.85181 14.3648C9.07571 16.5887 11.9539 17.2176 14.0316 16.4018C11.2593 15.3878 9.33429 12.2855 9.19553 8.78097ZM16.4018 17.9684C15.3878 20.7407 12.2855 22.6657 8.78097 22.8045L6.20858 26.6495C8.27259 28.1679 11.7656 27.7474 14.3648 25.1482C16.5887 22.9243 17.2176 20.0461 16.4018 17.9684ZM17.9684 15.5982C20.7407 16.6122 22.6657 19.7145 22.8045 23.219L26.6495 25.7914C28.1679 23.7274 27.7474 20.2344 25.1482 17.6352C22.9243 15.4113 20.0461 14.7824 17.9684 15.5982ZM15.5982 14.0316C16.6122 11.2593 19.7145 9.33429 23.219 9.19553L25.7914 5.35054C23.7274 3.83212 20.2344 4.25259 17.6352 6.8518C15.4113 9.07571 14.7824 11.9539 15.5982 14.0316Z" fill="#5C53E9"/>
</svg>
