<svg width="16" height="18" viewBox="0 0 16 18" fill="none" xmlns="http://www.w3.org/2000/svg">
<path d="M1.25 4.5L3.5 1.5H12.5L14.75 4.5M1.25 4.5V15C1.25 15.3978 1.40804 15.7794 1.68934 16.0607C1.97064 16.342 2.35218 16.5 2.75 16.5H13.25C13.6478 16.5 14.0294 16.342 14.3107 16.0607C14.592 15.7794 14.75 15.3978 14.75 15V4.5M1.25 4.5H14.75M11 7.5C11 8.29565 10.6839 9.05871 10.1213 9.62132C9.55871 10.1839 8.79565 10.5 8 10.5C7.20435 10.5 6.44129 10.1839 5.87868 9.62132C5.31607 9.05871 5 8.29565 5 7.5" stroke="#242424" stroke-width="1.5" stroke-linecap="round" stroke-linejoin="round"/>
</svg>
